<svg xmlns="http://www.w3.org/2000/svg" viewBox="0 0 400 200"><path fill="#fa0" class="itv-segment itv-segment--5" d="M284.067 73.394c.944 1.186 2.065 2.552 3.909 5.556 5.212 8.501 15.587 26.997 26.092 45.329 6.792 11.848 14.108 24.988 18.067 32.543 12.088-20.682 25.639-53.977 34.545-83.605.893-2.967 2.292-4.406 4.861-4.406 1.373 0 3.681.571 10.031 2.505 3.821 1.164 11.446 3.501 14.281 4.399 2.926.927 4.146 2.405 4.146 4.289 0 1.839-1.054 4.773-2.541 8.797-11.873 32.156-28.346 67.104-47.675 96.655C342.416 196.728 334.236 200 320.61 200c-14.385 0-20.815-3.837-27.879-14.274-4.797-7.087-9.79-14.87-16.552-25.338 10.329-17.318 14.741-38.285 14.741-58.942 0-13.209-3.559-23.965-6.853-28.052z"/><path fill="#A90061" class="itv-segment itv-segment--4" d="M290.92 101.445c0 20.657-4.414 41.632-14.741 58.942l-34.036-53.266c-4.208-7.184-5.336-10.224-5.336-14.279 0-11.95 21.157-24.767 35.44-24.767 5.1 0 8.356 1.24 11.82 5.319 3.294 4.087 6.853 14.843 6.853 28.051z"/><path fill="#867A24" class="itv-segment itv-segment--3" d="M276.179 160.387c-15.218 24.934-41.293 39.599-76.764 39.599-26.846 0-51.156-8.237-64.557-20.437 16.897-14.143 28.437-35.916 28.437-62.468l.01 9.131c0 15.386 3.233 24.6 9.907 31.45 6.995 7.182 17.734 11.127 31.643 11.127 29.308 0 44.484-18.402 44.484-38.72 0-8.153-2.405-14.784-7.192-22.956l34.032 53.274z"/><path fill="#19BEC8" class="itv-segment itv-segment--1" d="M134.868 179.549c-13.64 12.601-36.718 20.44-58.854 20.44-22.167 0-45.493-6.095-59.141-19.742C6.368 169.747.352 156.422.352 133.087V74.635c0-2.887 1.022-4.103 4.115-4.103H48.42c3.127 0 4.184 1.259 4.184 4.086v64.66c0 10.337 2.231 17.333 7.001 22.375 4.57 4.831 12.245 7.713 20.899 7.713 8.867 0 16.928-2.986 22.057-8.497 5.834-6.271 8.479-15.219 8.479-31.724v-5.098c0 21.379 7.571 41.346 23.825 55.502h.003z"/><path fill="#19BEC8" class="itv-segment itv-segment--0" d="M26.474 52.515C10.105 52.515 0 40.897 0 26.257 0 11.616 10.105 0 26.474 0 42.84 0 52.945 11.616 52.945 26.257c0 14.64-10.105 26.258-26.471 26.258z"/><path class="itv-segment itv-segment--2" d="M137.166 13.706c9.792 0 18.098 1.796 22.127 5.47 2.734 2.493 4.003 5.827 4.003 10.697v40.659h41.329c3.128 0 4.224 1.259 4.224 4.086V99.47c0 2.827-1.095 4.086-4.224 4.086h-23.203c-7.234 0-13.236-1.063-18.126-3.154v16.679c0 26.544-11.535 48.336-28.419 62.468-16.254-14.156-23.836-34.16-23.836-55.539V29.877c0-4.851 1.265-8.209 3.999-10.702 4.029-3.673 12.189-5.469 22.126-5.469"/></svg>